<svg xmlns="http://www.w3.org/2000/svg" viewBox="0 0 32 32" width="32" height="32">
  <rect width="32" height="32" rx="7" fill="#070a12"/>
  <path d="M16 4 C7 7 5 13 5 16 C5 19 7 25 16 28 C25 25 27 19 27 16 C27 13 25 7 16 4 Z"
        fill="none" stroke="#f0b45c" stroke-width="1.5" opacity="0.75"/>
  <path d="M16 7 C10.5 9 9.5 13 9.5 16 C9.5 19 10.5 23 16 25 C21.5 23 22.5 19 22.5 16 C22.5 13 21.5 9 16 7 Z"
        fill="none" stroke="#6fc3ff" stroke-width="1.4" opacity="0.7"/>
  <circle cx="16" cy="16" r="6.4" fill="#1a1428" stroke="#ff8a3d" stroke-width="1" opacity="0.9"/>
  <circle cx="16" cy="16" r="2.6" fill="#ffd08a"/>
  <path d="M16 2.5 L16 29.5" stroke="#8fa4bd" stroke-width="0.9" stroke-dasharray="1.5 2" opacity="0.5"/>
</svg>
